<svg width="1200" height="630" viewBox="0 0 1200 630" xmlns="http://www.w3.org/2000/svg" font-family="Arial, 'Liberation Sans', 'DejaVu Sans', sans-serif">
  <defs>
    <radialGradient id="glow" cx="60%" cy="12%" r="65%">
      <stop offset="0" stop-color="#57a6ff" stop-opacity="0.12"/><stop offset="1" stop-color="#57a6ff" stop-opacity="0"/>
    </radialGradient>
  </defs>
  <rect width="1200" height="630" fill="#0a0d13"/>
  <rect width="1200" height="630" fill="url(#glow)"/>

  <!-- ===== chart: real root roll-up, dot-com reference vs AI era ===== -->
  <line x1="60.0" y1="511.6" x2="1152.0" y2="511.6" stroke="#232b39" stroke-width="1.5"/>

  <!-- TODAY marker (cool white) -->
  <line x1="583.0" y1="150" x2="583.0" y2="511.6" stroke="#eef1f6" stroke-opacity="0.45" stroke-width="1.6" stroke-dasharray="4 6"/>
  <text x="583.0" y="141" text-anchor="middle" font-size="17" font-weight="700" fill="#eef1f6" letter-spacing="1">TODAY</text>

  <!-- PEAK marker (warm red) -->
  <line x1="744.5" y1="150" x2="744.5" y2="511.6" stroke="#ff5a44" stroke-opacity="0.85" stroke-width="2" stroke-dasharray="3 4"/>
  <text x="744.5" y="141" text-anchor="middle" font-size="17" font-weight="700" fill="#ff5a44" letter-spacing="1">PEAK</text>

  <polyline points="60.0,511.6 62.9,511.6 65.8,510.5 68.6,509.7 71.5,508.9 74.4,508.2 77.3,507.6 80.3,506.9 83.1,506.2 86.0,505.6 88.9,505.0 91.8,504.7 94.6,504.6 97.5,504.4 100.4,504.0 103.3,504.3 106.2,504.7 109.1,505.2 112.0,505.7 114.9,506.0 117.8,506.0 120.7,505.8 123.5,505.3 126.4,504.8 129.3,504.6 132.2,504.1 135.1,503.6 138.0,503.1 140.9,502.7 143.8,501.9 146.7,501.1 149.6,500.0 152.4,498.9 155.3,497.8 158.2,496.6 161.1,495.6 163.9,494.7 166.9,493.9 169.8,493.4 172.7,493.1 175.6,492.9 178.4,492.4 181.3,492.2 184.2,492.3 187.1,492.8 190.0,493.4 192.8,494.1 195.7,494.8 198.6,495.6 201.5,496.1 204.4,496.9 207.3,497.6 210.2,497.9 213.1,498.0 216.0,497.0 218.9,495.4 221.7,493.6 224.6,491.9 227.5,490.3 230.4,489.1 233.3,487.9 236.2,486.7 239.1,485.7 242.0,484.9 244.9,484.0 247.7,483.4 250.6,483.0 253.5,483.1 256.4,483.1 259.3,483.0 262.2,482.7 265.1,482.2 268.0,480.8 270.9,479.6 273.8,478.4 276.6,477.3 279.5,475.9 282.4,474.8 285.3,473.6 288.1,472.4 291.0,471.4 294.0,470.8 296.9,470.2 299.8,469.9 302.6,469.6 305.5,469.6 308.4,469.6 311.3,469.3 314.2,468.7 317.0,467.0 319.9,465.3 322.8,463.5 325.7,461.5 328.6,459.0 331.5,456.1 334.4,452.8 337.3,449.4 340.2,446.2 343.1,443.6 345.9,440.9 348.8,438.2 351.7,435.6 354.6,433.5 357.5,431.2 360.4,428.9 363.3,426.5 366.2,425.7 369.1,425.5 371.9,425.7 374.8,426.0 377.7,426.4 380.6,426.7 383.5,427.2 386.4,427.8 389.3,428.5 392.2,429.3 395.1,430.2 398.0,431.3 400.8,432.4 403.7,432.9 406.6,432.8 409.5,432.6 412.4,432.3 415.2,431.6 418.1,430.1 421.1,428.3 424.0,426.4 426.8,424.4 429.7,422.6 432.6,420.9 435.5,418.9 438.4,416.9 441.2,415.1 444.1,413.8 447.0,412.4 449.9,410.9 452.8,409.5 455.7,408.6 458.6,407.8 461.5,407.1 464.4,406.6 467.3,406.2 470.1,405.8 473.0,405.4 475.9,404.8 478.8,404.8 481.7,405.3 484.6,405.7 487.5,406.1 490.4,406.9 493.3,408.3 496.1,409.6 499.0,410.9 501.9,412.3 504.8,412.5 507.7,411.9 510.6,411.2 513.5,410.7 516.4,410.2 519.3,410.7 522.2,411.3 525.0,411.7 527.9,411.6 530.8,409.6 533.7,407.5 536.6,405.3 539.4,402.6 542.3,400.6 545.2,399.0 548.2,397.4 551.0,395.8 553.9,393.4 556.8,388.9 559.7,384.3 562.6,379.7 565.4,375.2 568.3,372.5 571.2,370.3 574.1,368.5 577.0,366.7 579.9,364.7 582.8,362.7 585.7,360.6 588.6,358.8 591.5,356.5 594.3,353.8 597.2,351.6 600.1,349.8 603.0,347.9 605.9,346.0 608.8,343.7 611.7,341.2 614.6,338.8 617.5,337.2 620.3,335.9 623.2,334.6 626.1,333.0 629.0,331.8 631.9,330.7 634.8,329.3 637.7,327.9 640.6,326.8 643.5,326.2 646.4,325.6 649.2,325.0 652.1,323.9 655.0,322.0 657.9,319.7 660.8,317.3 663.6,315.1 666.5,313.2 669.4,310.7 672.3,308.3 675.2,305.9 678.1,303.2 681.0,299.1 683.9,294.6 686.8,289.9 689.6,285.1 692.5,280.2 695.4,274.8 698.3,269.3 701.2,263.1 704.1,256.9 707.0,251.4 709.9,246.1 712.8,239.9 715.7,233.8 718.5,228.5 721.4,222.8 724.3,216.8 727.2,210.6 730.1,203.9 733.0,197.3 735.9,191.8 738.8,187.7 741.7,184.7 744.5,184.4 747.4,185.6 750.3,187.9 753.2,190.3 756.1,192.1 758.9,195.7 761.9,200.0 764.8,205.8 767.7,211.1 770.6,215.3 773.4,218.6 776.3,220.9 779.2,222.7 782.1,223.5 785.0,222.7 787.8,221.1 790.7,220.3 793.6,220.0 796.5,218.8 799.4,217.1 802.3,214.5 805.2,212.8 808.1,213.4 811.0,214.6 813.8,216.2 816.7,217.8 819.6,221.7 822.5,226.4 825.4,230.9 828.3,234.9 831.2,238.7 834.1,243.1 837.0,248.2 839.9,254.1 842.7,261.1 845.6,268.5 848.5,275.1 851.4,282.7 854.3,290.1 857.2,295.9 860.1,301.1 863.0,306.1 865.9,310.9 868.7,315.7 871.6,321.1 874.5,326.3 877.4,331.3 880.3,336.5 883.1,342.2 886.0,348.5 889.0,353.8 891.9,359.2 894.8,364.9 897.6,370.1 900.5,375.5 903.4,381.1 906.3,385.5 909.2,388.9 912.0,392.1 914.9,394.6 917.8,396.4 920.7,397.3 923.6,398.0 926.5,398.9 929.4,399.4 932.3,397.4 935.2,396.0 938.0,395.1 940.9,394.3 943.8,394.2 946.7,394.6 949.6,395.1 952.5,396.2 955.4,397.1 958.3,398.9 961.2,400.6 964.1,402.4 966.9,404.7 969.8,408.7 972.7,412.5 975.6,416.0 978.5,419.4 981.4,422.5 984.3,425.0 987.2,427.0 990.1,428.9 993.0,430.5 995.8,430.9 998.7,431.1 1001.6,431.1 1004.5,430.9 1007.3,430.3 1010.2,430.2 1013.2,430.3 1016.1,430.8 1019.0,431.4 1021.8,432.4 1024.7,433.5 1027.6,435.0 1030.5,436.8 1033.4,438.9 1036.2,441.1 1039.1,443.2 1042.0,445.3 1044.9,447.3 1047.8,449.3 1050.7,451.0 1053.6,452.7 1056.5,454.9 1059.4,457.4 1062.2,459.5 1065.1,461.5 1068.0,463.4 1070.9,466.2 1073.8,469.0 1076.7,471.8 1079.6,474.7 1082.5,477.8 1085.4,480.9 1088.3,483.9 1091.1,486.8 1094.0,489.6 1096.9,492.3 1099.8,495.1 1102.7,497.7 1105.6,500.2 1108.5,503.1 1111.4,505.7 1114.3,508.2 1117.2,510.9 1120.0,512.6 1122.9,513.9 1125.8,514.8 1128.7,515.7 1131.5,516.5 1134.4,517.4 1137.3,518.6 1140.3,520.6" fill="none" stroke="#8b93a3" stroke-width="3.2" stroke-linejoin="round" stroke-linecap="round"/>
  <polyline points="60.0,510.1 62.8,509.9 65.5,509.5 68.2,508.8 71.0,508.1 73.8,507.5 76.6,507.1 79.3,506.7 82.0,506.2 84.8,505.5 87.6,504.5 90.3,503.2 93.0,500.6 95.8,498.1 98.6,495.8 101.4,493.7 104.1,492.9 106.8,492.4 109.6,491.7 112.4,490.8 115.1,489.7 117.9,488.5 120.6,487.4 123.4,486.4 126.2,485.6 128.9,486.2 131.7,486.7 134.4,487.1 137.2,487.6 140.0,487.1 142.7,486.7 145.5,486.6 148.2,486.5 151.0,486.5 153.7,486.5 156.5,486.7 159.2,486.9 162.0,487.1 164.8,487.2 167.5,487.3 170.3,487.5 173.0,487.7 175.8,487.6 178.5,487.2 181.3,486.6 184.1,486.0 186.8,485.6 189.6,485.3 192.3,484.8 195.1,484.2 197.9,483.6 200.6,482.3 203.3,480.7 206.1,479.1 208.9,477.2 211.7,475.7 214.4,474.5 217.1,473.4 219.9,472.3 222.7,471.2 225.4,470.0 228.1,468.9 230.9,467.9 233.7,466.9 236.5,466.5 239.2,466.2 241.9,466.1 244.7,466.2 247.5,465.9 250.2,465.5 253.0,465.0 255.7,464.4 258.5,463.8 261.3,463.1 264.0,462.3 266.7,461.4 269.5,460.5 272.3,459.3 275.1,458.1 277.8,457.0 280.5,455.9 283.3,455.0 286.1,454.3 288.8,453.4 291.5,452.5 294.3,451.8 297.1,451.5 299.9,451.3 302.6,451.0 305.3,450.7 308.1,450.8 310.9,450.8 313.6,450.6 316.4,450.2 319.1,449.8 321.9,449.3 324.7,448.8 327.4,448.6 330.2,448.3 332.9,445.9 335.7,443.4 338.4,440.9 341.2,438.5 343.9,436.8 346.7,435.7 349.5,434.6 352.2,433.5 355.0,432.5 357.7,431.6 360.5,430.7 363.2,429.6 366.0,428.7 368.8,428.8 371.5,429.2 374.3,429.6 377.0,430.1 379.8,430.1 382.6,429.7 385.3,429.3 388.1,428.8 390.8,428.4 393.6,428.3 396.4,428.0 399.1,427.6 401.8,427.1 404.6,426.8 407.4,426.2 410.1,425.7 412.9,425.1 415.6,423.9 418.4,422.6 421.2,421.2 423.9,419.9 426.6,418.4 429.4,416.5 432.2,414.9 435.0,413.3 437.7,411.8 440.4,410.8 443.2,409.8 446.0,408.6 448.7,407.5 451.4,406.4 454.2,405.1 457.0,403.9 459.8,402.7 462.5,401.3 465.2,399.8 468.0,398.5 470.8,397.3 473.5,396.0 476.3,394.3 479.0,392.7 481.8,391.4 484.6,390.0 487.3,388.8 490.0,387.6 492.8,386.5 495.6,385.4 498.3,384.5 501.1,383.8 503.8,383.0 506.6,382.2 509.4,381.5 512.1,380.8 514.9,380.1 517.6,379.4 520.4,378.9 523.2,378.5 525.9,378.2 528.6,377.7 531.4,376.9 534.2,376.0 536.9,374.7 539.7,373.1 542.4,371.5 545.2,369.9 548.0,368.6 550.7,367.5 553.5,366.2 556.2,365.1 559.0,363.9 561.7,363.0 564.5,362.4 567.3,362.0 570.0,361.6 572.8,361.5 575.5,361.7 578.3,361.8 581.1,362.1 583.0,362.6" fill="none" stroke="#57a6ff" stroke-width="4.4" stroke-linejoin="round" stroke-linecap="round"/>

  <circle cx="583.0" cy="362.6" r="9" fill="#57a6ff"/>
  <circle cx="583.0" cy="362.6" r="16" fill="none" stroke="#57a6ff" stroke-opacity="0.4" stroke-width="2"/>
  <circle cx="744.5" cy="184.4" r="17" fill="none" stroke="#ff5a44" stroke-opacity="0.35" stroke-width="2"/>
  <circle cx="744.5" cy="184.4" r="9" fill="#ff5a44"/>

  <!-- legend -->
  <g font-size="19" font-weight="600">
    <line x1="864" y1="176" x2="898" y2="176" stroke="#8b93a3" stroke-width="3.4" stroke-linecap="round"/>
    <text x="908" y="182" fill="#c2cad6">Dot-com  1995&#8211;2000</text>
    <line x1="864" y1="208" x2="898" y2="208" stroke="#57a6ff" stroke-width="4.4" stroke-linecap="round"/>
    <text x="908" y="214" fill="#8fc0ff">AI era  2022&#8211;now</text>
  </g>

  <!-- ===== heading, overlaid on the empty top-left of the chart ===== -->
  <rect x="42" y="42" width="44" height="44" rx="10" fill="#eef1f6"/>
  <text x="64" y="73" text-anchor="middle" font-size="21" font-weight="800" fill="#0a0d13" letter-spacing="-0.5">AI</text>
  <text x="98" y="72" font-size="26" font-weight="700" fill="#eef1f6" letter-spacing="-0.3">Bubble Oracle</text>

  <text x="45" y="152" font-size="15" font-weight="700" fill="#57a6ff" letter-spacing="2.5">PROJECTED PEAK</text>
  <text x="42" y="214" font-size="52" font-weight="800" fill="#eef1f6" letter-spacing="-1.4">AI Bubble Bursts:</text>
  <text x="42" y="286" font-size="60" font-weight="800" fill="#ff5a44" letter-spacing="-1.8">Sep 20, 2027</text>

  <rect x="44" y="330" width="266" height="46" rx="23" fill="#122a45" stroke="#57a6ff" stroke-opacity="0.55" stroke-width="1.5"/>
  <text x="177" y="359" text-anchor="middle" font-size="18.5" font-weight="700" fill="#8fc0ff">See where we are now  &#8594;</text>

  <!-- footer -->
  <circle cx="48" cy="596" r="4" fill="#57a6ff"/>
  <text x="64" y="602" font-size="20" font-weight="600" fill="#eef1f6">aibubbleoracle.com</text>
</svg>
