<svg width="1200" height="630" viewBox="0 0 1200 630" xmlns="http://www.w3.org/2000/svg" font-family="Arial, 'Liberation Sans', 'DejaVu Sans', sans-serif">
  <defs>
    <radialGradient id="glow" cx="70%" cy="16%" r="60%">
      <stop offset="0" stop-color="#57a6ff" stop-opacity="0.14"/><stop offset="1" stop-color="#57a6ff" stop-opacity="0"/>
    </radialGradient>
  </defs>
  <rect width="1200" height="630" fill="#0a0d13"/>
  <rect width="1200" height="630" fill="url(#glow)"/>

  <!-- brand -->
  <rect x="64" y="42" width="44" height="44" rx="10" fill="#eef1f6"/>
  <text x="86" y="73" text-anchor="middle" font-size="21" font-weight="800" fill="#0a0d13" letter-spacing="-0.5">AI</text>
  <text x="120" y="72" font-size="26" font-weight="700" fill="#eef1f6" letter-spacing="-0.3">Bubble Oracle</text>

  <!-- headline: the live projected peak -->
  <text x="65" y="168" font-size="16" font-weight="700" fill="#57a6ff" letter-spacing="3">PROJECTED PEAK</text>
  <text x="63" y="232" font-size="52" font-weight="800" fill="#eef1f6" letter-spacing="-1.2">AI Bubble Bursts</text>
  <text x="62" y="304" font-size="62" font-weight="800" fill="#ff5a44" letter-spacing="-1.6">Dec 19, 2027</text>
  <text x="64" y="356" font-size="22" font-weight="400" fill="#9aa4b3">The AI boom, on the dot-com bubble's clock.</text>

  <!-- call to action -->
  <rect x="64" y="392" width="266" height="46" rx="23" fill="#122a45" stroke="#57a6ff" stroke-opacity="0.55" stroke-width="1.5"/>
  <text x="197" y="421" text-anchor="middle" font-size="18.5" font-weight="700" fill="#8fc0ff">See where we are now  &#8594;</text>

  <!-- footer -->
  <circle cx="68" cy="574" r="4" fill="#57a6ff"/>
  <text x="84" y="580" font-size="20" font-weight="600" fill="#eef1f6">aibubbleoracle.com</text>

  <!-- chart: real root roll-up (dot-com reference vs AI era, progress axis) -->
  <line x1="612.0" y1="431.8" x2="1150.0" y2="431.8" stroke="#242c39" stroke-width="1.5"/>
  <polyline points="612.0,431.8 613.4,432.1 614.8,431.8 616.2,431.8 617.6,431.5 619.0,431.3 620.4,430.8 621.9,430.0 623.2,429.4 624.6,429.0 626.1,428.5 627.5,428.3 628.8,428.2 630.3,428.0 631.7,427.7 633.1,427.7 634.5,427.7 635.9,427.8 637.3,427.9 638.7,428.3 640.1,428.6 641.5,428.9 642.9,428.9 644.3,428.9 645.7,428.9 647.1,428.7 648.6,428.4 649.9,428.3 651.3,427.7 652.8,427.0 654.2,426.1 655.6,425.1 657.0,424.0 658.4,422.9 659.8,421.6 661.2,420.5 662.6,419.6 664.0,419.1 665.4,418.7 666.8,418.6 668.2,418.6 669.6,418.7 671.0,419.1 672.4,419.7 673.8,420.6 675.2,421.7 676.6,422.9 678.0,424.1 679.5,425.4 680.9,426.3 682.3,426.7 683.7,427.1 685.1,427.1 686.5,426.9 687.9,426.1 689.3,424.9 690.7,423.5 692.1,422.2 693.5,421.1 694.9,420.1 696.3,419.1 697.7,418.1 699.1,417.3 700.5,417.0 701.9,416.7 703.3,416.6 704.7,416.7 706.1,416.9 707.6,416.9 709.0,416.9 710.4,416.7 711.8,416.3 713.2,415.3 714.6,414.3 716.0,413.4 717.4,412.7 718.8,411.8 720.2,411.0 721.6,410.2 723.0,409.4 724.4,408.9 725.8,408.6 727.2,408.5 728.6,408.5 730.0,408.4 731.4,408.4 732.8,408.3 734.3,408.0 735.7,407.4 737.1,406.0 738.5,404.6 739.9,403.1 741.3,401.5 742.7,399.4 744.1,396.9 745.5,394.2 746.9,391.3 748.3,388.8 749.7,386.9 751.1,385.0 752.5,383.2 753.9,381.3 755.3,379.6 756.7,377.6 758.1,375.6 759.5,373.7 761.0,372.9 762.4,372.8 763.7,372.9 765.2,373.1 766.6,373.4 768.0,374.0 769.4,374.7 770.8,375.5 772.2,376.5 773.6,377.6 775.0,379.0 776.4,380.5 777.8,382.1 779.2,383.0 780.6,383.3 782.0,383.6 783.5,383.7 784.8,383.6 786.2,382.1 787.7,380.5 789.1,378.8 790.4,377.0 791.9,375.3 793.3,373.6 794.7,371.8 796.1,369.8 797.5,368.1 798.9,366.8 800.3,365.4 801.7,364.0 803.1,362.7 804.5,362.2 805.9,361.8 807.3,361.5 808.7,361.4 810.2,361.5 811.5,361.7 812.9,361.8 814.4,361.7 815.8,362.0 817.1,362.5 818.6,363.0 820.0,363.6 821.4,364.2 822.8,365.2 824.2,366.2 825.6,367.1 827.0,368.1 828.4,364.4 829.8,358.7 831.2,352.9 832.6,347.1 834.0,343.7 835.4,343.9 836.9,344.3 838.2,344.4 839.6,344.1 841.1,340.0 842.5,335.7 843.9,331.4 845.3,326.7 846.7,326.5 848.1,328.1 849.5,329.8 850.9,331.4 852.3,330.0 853.7,323.2 855.1,316.2 856.5,309.3 857.9,302.5 859.3,301.3 860.7,300.8 862.1,300.5 863.5,300.4 864.9,298.6 866.3,296.6 867.8,294.5 869.2,292.7 870.6,291.1 872.0,290.9 873.4,291.0 874.8,291.4 876.2,291.8 877.6,291.1 879.0,289.7 880.4,288.0 881.8,286.5 883.2,287.2 884.6,288.4 886.0,289.6 887.4,290.6 888.8,291.1 890.2,290.7 891.6,290.1 893.0,289.5 894.5,289.0 895.9,288.9 897.3,288.9 898.7,288.9 900.1,288.4 901.5,286.3 902.9,283.1 904.3,279.8 905.7,276.7 907.1,274.4 908.5,272.5 909.9,270.6 911.3,268.8 912.7,266.7 914.1,262.0 915.5,256.8 916.9,251.4 918.3,246.1 919.7,241.0 921.1,236.0 922.6,230.7 924.0,225.0 925.4,219.3 926.8,214.8 928.2,210.3 929.6,205.2 931.0,200.1 932.4,196.0 933.8,191.5 935.2,186.8 936.6,181.9 938.0,177.5 939.4,173.6 940.8,170.7 942.2,168.9 943.6,168.0 945.0,169.7 946.4,172.5 947.8,176.2 949.3,180.0 950.7,183.8 952.0,189.1 953.5,195.1 954.9,202.2 956.3,208.2 957.7,212.8 959.1,216.5 960.5,219.5 961.9,221.8 963.3,221.6 964.7,220.0 966.1,217.9 967.5,216.4 968.9,216.0 970.3,215.2 971.8,214.1 973.1,212.1 974.5,211.0 976.0,211.7 977.4,212.8 978.7,214.2 980.2,215.8 981.6,219.7 983.0,224.2 984.4,228.7 985.8,232.6 987.2,235.9 988.6,239.3 990.0,243.3 991.4,248.0 992.8,253.5 994.2,259.3 995.6,264.6 997.0,270.7 998.5,276.5 999.8,280.7 1001.2,284.5 1002.7,288.2 1004.1,291.6 1005.4,295.3 1006.9,299.5 1008.3,303.6 1009.7,307.6 1011.1,311.8 1012.5,316.7 1013.9,321.9 1015.3,326.4 1016.7,331.0 1018.1,335.9 1019.5,340.3 1020.9,344.8 1022.3,349.6 1023.7,352.8 1025.2,354.9 1026.5,356.8 1027.9,358.2 1029.4,359.2 1030.8,359.8 1032.2,360.2 1033.6,360.9 1035.0,361.1 1036.4,360.1 1037.8,359.5 1039.2,359.4 1040.6,359.3 1042.0,360.3 1043.4,361.8 1044.8,363.5 1046.2,365.5 1047.6,367.3 1049.0,369.5 1050.4,371.5 1051.8,373.7 1053.2,376.2 1054.6,378.9 1056.1,381.2 1057.5,383.4 1058.9,385.3 1060.3,387.0 1061.7,388.1 1063.1,388.8 1064.5,389.4 1065.9,389.8 1067.3,389.1 1068.7,388.3 1070.1,387.4 1071.5,386.3 1072.9,385.8 1074.3,385.9 1075.7,386.2 1077.1,386.8 1078.5,387.3 1079.9,387.9 1081.3,388.6 1082.8,389.6 1084.2,390.9 1085.6,392.9 1087.0,394.9 1088.4,396.9 1089.8,398.8 1091.2,400.2 1092.6,401.5 1094.0,402.6 1095.4,403.6 1096.8,405.2 1098.2,407.3 1099.6,409.1 1101.0,410.8 1102.4,412.4 1103.8,414.3 1105.2,416.3 1106.6,418.3 1108.0,420.3 1109.4,422.8 1110.9,425.3 1112.3,427.6 1113.7,430.0 1115.1,432.2 1116.5,434.3 1117.9,436.6 1119.3,438.7 1120.7,440.7 1122.1,442.8 1123.5,444.8 1124.9,446.8 1126.3,448.8 1127.7,450.2 1129.1,451.2 1130.5,451.9 1131.9,452.6 1133.3,453.2 1134.7,453.9 1136.1,454.9 1137.6,456.5" fill="none" stroke="#8b93a3" stroke-width="3" stroke-linejoin="round" stroke-linecap="round"/>
  <polyline points="612.0,446.5 613.4,445.6 614.8,444.7 616.2,443.6 617.6,442.4 619.0,441.5 620.4,440.8 621.9,440.0 623.2,438.9 624.6,437.7 626.1,436.2 627.5,433.8 628.8,426.9 630.3,420.1 631.7,413.4 633.1,406.8 634.5,405.0 635.9,404.0 637.3,402.9 638.7,401.7 640.1,400.3 641.5,398.8 642.9,397.4 644.3,396.1 645.7,395.8 647.1,400.8 648.6,405.7 649.9,410.5 651.3,415.4 652.8,416.5 654.2,417.2 655.6,418.0 657.0,419.0 658.4,419.8 659.8,420.3 661.2,421.0 662.6,421.6 664.0,422.3 665.4,423.2 666.8,424.0 668.2,425.0 669.6,426.0 671.0,426.4 672.4,426.4 673.8,426.2 675.2,426.1 676.6,426.2 678.0,426.5 679.5,426.9 680.9,427.0 682.3,427.2 683.7,424.9 685.1,422.4 686.5,419.6 687.9,416.8 689.3,414.6 690.7,413.3 692.1,412.1 693.5,410.9 694.9,409.6 696.3,407.9 697.7,406.3 699.1,404.8 700.5,403.4 701.9,403.3 703.3,403.6 704.7,404.0 706.1,404.5 707.6,404.5 709.0,403.8 710.4,403.0 711.8,402.2 713.2,401.4 714.6,401.0 716.0,400.3 717.4,399.6 718.8,399.0 720.2,398.2 721.6,397.5 723.0,396.8 724.4,396.1 725.8,395.2 727.2,393.8 728.6,392.3 730.0,390.8 731.4,389.5 732.8,389.3 734.3,389.1 735.7,389.0 737.1,388.7 738.5,388.8 739.9,389.0 741.3,389.0 742.7,388.8 744.1,388.9 745.5,389.7 746.9,390.5 748.3,391.4 749.7,392.3 751.1,386.4 752.5,380.4 753.9,374.4 755.3,368.4 756.7,365.3 758.1,364.2 759.5,363.3 761.0,362.3 762.4,361.3 763.7,360.2 765.2,359.0 766.6,357.8 768.0,356.0 769.4,355.3 770.8,354.9 772.2,354.6 773.6,354.2 775.0,352.0 776.4,347.9 777.8,343.8 779.2,339.7 780.6,337.1 782.0,336.8 783.5,336.4 784.8,335.9 786.2,336.0 787.7,339.0 789.1,341.9 790.4,344.7 791.9,347.5 793.3,350.1 794.7,352.7 796.1,355.2 797.5,357.8 798.9,358.7 800.3,357.1 801.7,355.6 803.1,354.2 804.5,352.9 805.9,353.5 807.3,354.1 808.7,354.7 810.2,355.3 811.5,355.3 812.9,355.0 814.4,354.8 815.8,354.6 817.1,354.2 818.6,353.5 820.0,353.0 821.4,352.5 822.8,352.0 824.2,350.9 825.6,349.9 827.0,349.1 828.4,348.2 829.8,347.3 831.2,346.2 832.6,345.1 834.0,344.1 835.4,343.3 836.9,343.0 838.2,342.6 839.6,342.1 841.1,341.8 842.5,341.3 843.9,340.8 845.3,340.3 846.7,339.8 848.1,339.5 849.5,339.3 850.9,338.9 852.3,338.3 853.7,337.6 855.1,336.6 856.5,335.3 857.9,334.1 859.3,332.8 860.7,331.7 862.1,330.9 863.5,329.9 864.9,329.0 866.3,328.1 867.8,327.3 869.2,326.8 870.6,326.3 872.0,326.0 873.4,325.9 874.8,326.0 876.2,326.1 877.6,326.3" fill="none" stroke="#57a6ff" stroke-width="3.6" stroke-linejoin="round" stroke-linecap="round"/>
  <path d="M877.6,326.3 L943.6,168.0" fill="none" stroke="#57a6ff" stroke-width="2.6" stroke-dasharray="2 7" stroke-linecap="round" stroke-opacity="0.75"/>
  <circle cx="877.6" cy="326.3" r="7" fill="#57a6ff"/>
  <circle cx="943.6" cy="168.0" r="14" fill="none" stroke="#ff5a44" stroke-opacity="0.35" stroke-width="2"/>
  <circle cx="943.6" cy="168.0" r="8" fill="#ff5a44"/>

  <!-- legend -->
  <g font-size="15.5" font-weight="600">
    <line x1="628" y1="184" x2="656" y2="184" stroke="#8b93a3" stroke-width="3" stroke-linecap="round"/>
    <text x="664" y="189" fill="#b8c0cd">Dot-com  1995&#8211;2000</text>
    <line x1="628" y1="212" x2="656" y2="212" stroke="#57a6ff" stroke-width="3.6" stroke-linecap="round"/>
    <text x="664" y="217" fill="#8fc0ff">AI era  2022&#8211;now</text>
  </g>
</svg>
