<svg width="1200" height="630" viewBox="0 0 1200 630" xmlns="http://www.w3.org/2000/svg" font-family="Arial, 'Liberation Sans', 'DejaVu Sans', sans-serif">
  <defs>
    <radialGradient id="glow" cx="60%" cy="12%" r="65%">
      <stop offset="0" stop-color="#57a6ff" stop-opacity="0.12"/><stop offset="1" stop-color="#57a6ff" stop-opacity="0"/>
    </radialGradient>
  </defs>
  <rect width="1200" height="630" fill="#0a0d13"/>
  <rect width="1200" height="630" fill="url(#glow)"/>

  <!-- ===== chart: real root roll-up, dot-com reference vs AI era ===== -->
  <line x1="60.0" y1="511.6" x2="1152.0" y2="511.6" stroke="#232b39" stroke-width="1.5"/>

  <!-- TODAY marker (cool white) -->
  <line x1="555.5" y1="150" x2="555.5" y2="511.6" stroke="#eef1f6" stroke-opacity="0.45" stroke-width="1.6" stroke-dasharray="4 6"/>
  <text x="555.5" y="141" text-anchor="middle" font-size="17" font-weight="700" fill="#eef1f6" letter-spacing="1">TODAY</text>

  <!-- PEAK marker (warm red) -->
  <line x1="741.7" y1="150" x2="741.7" y2="511.6" stroke="#ff5a44" stroke-opacity="0.85" stroke-width="2" stroke-dasharray="3 4"/>
  <text x="741.7" y="141" text-anchor="middle" font-size="17" font-weight="700" fill="#ff5a44" letter-spacing="1">PEAK</text>

  <polyline points="60.0,511.6 62.9,511.9 65.8,511.6 68.6,511.5 71.5,511.2 74.4,510.9 77.3,510.2 80.3,509.3 83.1,508.5 86.0,508.0 88.9,507.3 91.8,507.0 94.6,506.9 97.5,506.7 100.4,506.3 103.3,506.3 106.2,506.3 109.1,506.5 112.0,506.6 114.9,507.0 117.8,507.5 120.7,507.9 123.5,507.9 126.4,507.9 129.3,507.9 132.2,507.6 135.1,507.2 138.0,507.1 140.9,506.4 143.8,505.4 146.7,504.3 149.6,503.1 152.4,501.6 155.3,500.2 158.2,498.6 161.1,497.2 163.9,496.0 166.9,495.4 169.8,494.9 172.7,494.8 175.6,494.7 178.4,494.9 181.3,495.4 184.2,496.2 187.1,497.3 190.0,498.7 192.8,500.2 195.7,501.8 198.6,503.3 201.5,504.6 204.4,505.1 207.3,505.5 210.2,505.5 213.1,505.3 216.0,504.3 218.9,502.8 221.7,501.1 224.6,499.4 227.5,497.9 230.4,496.7 233.3,495.4 236.2,494.2 239.1,493.1 242.0,492.8 244.9,492.4 247.7,492.2 250.6,492.3 253.5,492.6 256.4,492.6 259.3,492.6 262.2,492.3 265.1,491.8 268.0,490.5 270.9,489.4 273.8,488.2 276.6,487.3 279.5,486.1 282.4,485.1 285.3,484.2 288.1,483.1 291.0,482.5 294.0,482.1 296.9,481.9 299.8,482.0 302.6,481.8 305.5,481.8 308.4,481.6 311.3,481.3 314.2,480.6 317.0,478.8 319.9,477.0 322.8,475.1 325.7,473.1 328.6,470.3 331.5,467.2 334.4,463.8 337.3,460.1 340.2,457.0 343.1,454.6 345.9,452.2 348.8,449.8 351.7,447.5 354.6,445.3 357.5,442.7 360.4,440.3 363.3,437.8 366.2,436.8 369.1,436.6 371.9,436.7 374.8,437.0 377.7,437.4 380.6,438.1 383.5,439.1 386.4,440.1 389.3,441.3 392.2,442.8 395.1,444.5 398.0,446.5 400.8,448.5 403.7,449.6 406.6,450.0 409.5,450.4 412.4,450.5 415.2,450.3 418.1,448.5 421.1,446.4 424.0,444.3 426.8,442.0 429.7,439.9 432.6,437.7 435.5,435.3 438.4,432.9 441.2,430.7 444.1,429.1 447.0,427.3 449.9,425.5 452.8,423.8 455.7,423.2 458.6,422.7 461.5,422.3 464.4,422.2 467.3,422.3 470.1,422.5 473.0,422.6 475.9,422.6 478.8,423.0 481.7,423.6 484.6,424.2 487.5,424.9 490.4,425.8 493.3,427.1 496.1,428.3 499.0,429.4 501.9,430.7 504.8,426.0 507.7,418.7 510.6,411.4 513.5,404.1 516.4,399.7 519.3,400.0 522.2,400.4 525.0,400.6 527.9,400.3 530.8,395.0 533.7,389.6 536.6,384.1 539.4,378.1 542.3,377.9 545.2,380.0 548.2,382.1 551.0,384.2 553.9,382.3 556.8,373.7 559.7,364.8 562.6,356.1 565.4,347.4 568.3,345.9 571.2,345.3 574.1,344.9 577.0,344.7 579.9,342.5 582.8,340.0 585.7,337.3 588.6,335.0 591.5,333.0 594.3,332.7 597.2,332.9 600.1,333.3 603.0,333.9 605.9,332.9 608.8,331.1 611.7,329.0 614.6,327.2 617.5,328.0 620.3,329.5 623.2,331.1 626.1,332.4 629.0,333.0 631.9,332.5 634.8,331.7 637.7,330.9 640.6,330.3 643.5,330.2 646.4,330.2 649.2,330.1 652.1,329.6 655.0,326.9 657.9,322.8 660.8,318.7 663.6,314.7 666.5,311.7 669.4,309.3 672.3,307.0 675.2,304.6 678.1,302.0 681.0,296.0 683.9,289.4 686.8,282.7 689.6,275.8 692.5,269.4 695.4,263.0 698.3,256.4 701.2,249.1 704.1,241.9 707.0,236.1 709.9,230.5 712.8,224.0 715.7,217.5 718.5,212.3 721.4,206.6 724.3,200.6 727.2,194.4 730.1,188.8 733.0,183.9 735.9,180.2 738.8,178.0 741.7,176.8 744.5,178.9 747.4,182.5 750.3,187.2 753.2,192.0 756.1,196.8 758.9,203.6 761.9,211.2 764.8,220.1 767.7,227.8 770.6,233.5 773.4,238.3 776.3,242.1 779.2,245.0 782.1,244.7 785.0,242.8 787.8,240.1 790.7,238.1 793.6,237.7 796.5,236.6 799.4,235.2 802.3,232.7 805.2,231.4 808.1,232.2 811.0,233.6 813.8,235.4 816.7,237.4 819.6,242.4 822.5,248.1 825.4,253.7 828.3,258.7 831.2,262.9 834.1,267.3 837.0,272.3 839.9,278.2 842.7,285.2 845.6,292.7 848.5,299.4 851.4,307.0 854.3,314.5 857.2,319.8 860.1,324.7 863.0,329.3 865.9,333.6 868.7,338.2 871.6,343.7 874.5,348.9 877.4,353.9 880.3,359.3 883.1,365.4 886.0,372.1 889.0,377.8 891.9,383.7 894.8,389.8 897.6,395.5 900.5,401.2 903.4,407.2 906.3,411.3 909.2,414.0 912.0,416.4 914.9,418.1 917.8,419.3 920.7,420.1 923.6,420.7 926.5,421.5 929.4,421.8 932.3,420.5 935.2,419.8 938.0,419.6 940.9,419.5 943.8,420.8 946.7,422.7 949.6,424.8 952.5,427.4 955.4,429.7 958.3,432.4 961.2,435.1 964.1,437.8 966.9,441.0 969.8,444.4 972.7,447.3 975.6,450.0 978.5,452.5 981.4,454.7 984.3,456.0 987.2,457.0 990.1,457.7 993.0,458.2 995.8,457.4 998.7,456.4 1001.6,455.1 1004.5,453.8 1007.3,453.2 1010.2,453.2 1013.2,453.7 1016.1,454.4 1019.0,455.1 1021.8,455.8 1024.7,456.7 1027.6,458.0 1030.5,459.7 1033.4,462.1 1036.2,464.7 1039.1,467.2 1042.0,469.7 1044.9,471.5 1047.8,473.1 1050.7,474.4 1053.6,475.8 1056.5,477.7 1059.4,480.4 1062.2,482.7 1065.1,484.8 1068.0,486.8 1070.9,489.3 1073.8,491.8 1076.7,494.4 1079.6,497.0 1082.5,500.1 1085.4,503.2 1088.3,506.2 1091.1,509.2 1094.0,512.1 1096.9,514.7 1099.8,517.6 1102.7,520.3 1105.6,522.8 1108.5,525.5 1111.4,528.1 1114.3,530.6 1117.2,533.1 1120.0,534.9 1122.9,536.2 1125.8,537.0 1128.7,537.9 1131.5,538.7 1134.4,539.6 1137.3,540.9 1140.3,542.8" fill="none" stroke="#8b93a3" stroke-width="3.2" stroke-linejoin="round" stroke-linecap="round"/>
  <polyline points="60.0,530.2 62.6,529.0 65.3,527.9 67.8,526.5 70.5,525.0 73.1,523.9 75.7,522.9 78.4,521.9 80.9,520.5 83.6,519.0 86.2,517.1 88.8,514.1 91.4,505.2 94.0,496.6 96.7,488.1 99.3,479.8 101.9,477.5 104.5,476.3 107.1,474.9 109.8,473.3 112.4,471.5 115.0,469.7 117.6,467.9 120.2,466.3 122.9,465.8 125.5,472.2 128.1,478.4 130.7,484.6 133.3,490.8 136.0,492.1 138.6,492.9 141.2,494.0 143.8,495.2 146.4,496.3 149.1,497.0 151.7,497.8 154.3,498.6 156.9,499.5 159.5,500.6 162.2,501.7 164.8,502.9 167.4,504.1 170.0,504.7 172.6,504.6 175.3,504.4 177.9,504.2 180.5,504.4 183.1,504.9 185.8,505.2 188.4,505.5 191.0,505.6 193.6,502.8 196.2,499.5 198.9,496.1 201.5,492.4 204.1,489.7 206.7,488.0 209.3,486.5 212.0,485.0 214.6,483.3 217.2,481.2 219.8,479.2 222.4,477.3 225.1,475.4 227.7,475.4 230.3,475.7 232.9,476.2 235.5,476.9 238.2,476.9 240.8,475.9 243.4,475.0 246.0,473.9 248.6,473.0 251.3,472.4 253.9,471.6 256.5,470.7 259.1,469.9 261.7,468.9 264.4,468.0 266.9,467.1 269.6,466.3 272.2,465.1 274.8,463.3 277.5,461.4 280.0,459.5 282.7,457.8 285.3,457.5 287.9,457.4 290.6,457.2 293.1,456.9 295.8,457.0 298.4,457.2 301.0,457.2 303.7,457.0 306.2,457.1 308.9,458.0 311.5,459.1 314.1,460.3 316.8,461.4 319.3,453.9 322.0,446.3 324.6,438.6 327.2,431.1 329.8,427.2 332.4,425.8 335.1,424.6 337.7,423.3 340.3,422.1 342.9,420.6 345.5,419.1 348.2,417.6 350.8,415.3 353.4,414.5 356.0,414.0 358.6,413.5 361.3,413.1 363.9,410.2 366.5,405.1 369.1,399.8 371.7,394.6 374.4,391.4 377.0,391.0 379.6,390.4 382.2,389.8 384.8,389.9 387.5,393.7 390.1,397.4 392.7,401.0 395.3,404.6 397.9,407.8 400.6,411.1 403.2,414.4 405.8,417.6 408.4,418.7 411.0,416.7 413.7,414.9 416.3,413.1 418.9,411.4 421.5,412.2 424.1,413.0 426.8,413.7 429.4,414.4 432.0,414.4 434.6,414.1 437.3,413.8 439.9,413.6 442.5,413.0 445.1,412.2 447.7,411.5 450.4,410.9 453.0,410.2 455.6,408.9 458.2,407.6 460.8,406.5 463.5,405.4 466.1,404.3 468.7,402.9 471.3,401.6 473.9,400.3 476.6,399.2 479.2,398.8 481.8,398.3 484.4,397.7 487.0,397.3 489.7,396.7 492.3,396.1 494.9,395.4 497.5,394.8 500.1,394.5 502.8,394.2 505.3,393.6 508.0,392.9 510.6,392.0 513.2,390.7 515.9,389.1 518.4,387.5 521.1,385.9 523.7,384.5 526.3,383.5 529.0,382.2 531.5,381.1 534.2,379.9 536.8,378.9 539.4,378.2 542.1,377.7 544.6,377.2 547.3,377.1 549.9,377.3 552.5,377.4 555.2,377.7 555.5,377.7" fill="none" stroke="#57a6ff" stroke-width="4.4" stroke-linejoin="round" stroke-linecap="round"/>

  <circle cx="555.5" cy="377.7" r="9" fill="#57a6ff"/>
  <circle cx="555.5" cy="377.7" r="16" fill="none" stroke="#57a6ff" stroke-opacity="0.4" stroke-width="2"/>
  <circle cx="741.7" cy="176.8" r="17" fill="none" stroke="#ff5a44" stroke-opacity="0.35" stroke-width="2"/>
  <circle cx="741.7" cy="176.8" r="9" fill="#ff5a44"/>

  <!-- legend -->
  <g font-size="19" font-weight="600">
    <line x1="864" y1="176" x2="898" y2="176" stroke="#8b93a3" stroke-width="3.4" stroke-linecap="round"/>
    <text x="908" y="182" fill="#c2cad6">Dot-com  1995&#8211;2000</text>
    <line x1="864" y1="208" x2="898" y2="208" stroke="#57a6ff" stroke-width="4.4" stroke-linecap="round"/>
    <text x="908" y="214" fill="#8fc0ff">AI era  2022&#8211;now</text>
  </g>

  <!-- ===== heading, overlaid on the empty top-left of the chart ===== -->
  <rect x="42" y="42" width="44" height="44" rx="10" fill="#eef1f6"/>
  <text x="64" y="73" text-anchor="middle" font-size="21" font-weight="800" fill="#0a0d13" letter-spacing="-0.5">AI</text>
  <text x="98" y="72" font-size="26" font-weight="700" fill="#eef1f6" letter-spacing="-0.3">Bubble Oracle</text>

  <text x="43" y="150" font-size="41" font-weight="800" fill="#eef1f6" letter-spacing="-1.2">AI boom mapped to</text>
  <text x="43" y="196" font-size="41" font-weight="800" fill="#eef1f6" letter-spacing="-1.2">Dot-com bubble timeline</text>
  <text x="45" y="238" font-size="15" font-weight="700" fill="#ff5a44" letter-spacing="2.5">PROJECTED PEAK</text>
  <text x="42" y="296" font-size="56" font-weight="800" fill="#ff5a44" letter-spacing="-1.6">Dec 21, 2027</text>

  <rect x="44" y="330" width="266" height="46" rx="23" fill="#122a45" stroke="#57a6ff" stroke-opacity="0.55" stroke-width="1.5"/>
  <text x="177" y="359" text-anchor="middle" font-size="18.5" font-weight="700" fill="#8fc0ff">See where we are now  &#8594;</text>

  <!-- footer -->
  <circle cx="48" cy="596" r="4" fill="#57a6ff"/>
  <text x="64" y="602" font-size="20" font-weight="600" fill="#eef1f6">aibubbleoracle.com</text>
</svg>
